<svg version="1.1" xmlns="http://www.w3.org/2000/svg" xmlns:xlink="http://www.w3.org/1999/xlink" width="24" height="24" viewBox="0,0,256,256"><g fill="#000000" fill-rule="nonzero" stroke="none" stroke-width="1" stroke-linecap="butt" stroke-linejoin="miter" stroke-miterlimit="10" stroke-dasharray="" stroke-dashoffset="0" font-family="none" font-weight="none" font-size="none" text-anchor="none" style="mix-blend-mode: normal"><g transform="scale(10.66667,10.66667)"><path d="M12,2c1.3132,0 2.6136,0.25866 3.8268,0.7612c1.2133,0.50255 2.3157,1.23915 3.2443,2.16773c0.9286,0.92859 1.6651,2.03098 2.1677,3.24424c0.5025,1.21325 0.7612,2.51363 0.7612,3.82683c0,2.6522 -1.0536,5.1957 -2.9289,7.0711c-1.8754,1.8753 -4.4189,2.9289 -7.0711,2.9289c-4.6,0 -8.45,-3.08 -9.64,-7.27l3.83,1.58c0.26,1.29 1.41,2.27 2.78,2.27c1.56,0 2.83,-1.27 2.83,-2.83v-0.13l3.4,-2.43h0.08c2.08,0 3.77,-1.69 3.77,-3.77c0,-2.08 -1.69,-3.77 -3.77,-3.77c-2.08,0 -3.78,1.69 -3.78,3.77v0.05l-2.37,3.46l-0.16,-0.01c-0.59,0 -1.14,0.18 -1.59,0.49l-5.38,-2.21c0.43,-5.15 4.73,-9.2 10,-9.2zM8.28,17.17c0.8,0.33 1.72,-0.04 2.05,-0.84c0.33,-0.8 -0.05,-1.71 -0.83,-2.04l-1.28,-0.53c0.49,-0.18 1.04,-0.19 1.56,0.03c0.53,0.21 0.94,0.62 1.15,1.15c0.22,0.52 0.22,1.1 0,1.62c-0.43,1.08 -1.7,1.6 -2.78,1.15c-0.5,-0.21 -0.88,-0.59 -1.09,-1.04zM17.8,9.42c0,1.39 -1.13,2.52 -2.52,2.52c-1.38,0 -2.51,-1.13 -2.51,-2.52c-0.0013,-0.32999 0.0627,-0.65697 0.1884,-0.9621c0.1256,-0.30512 0.3105,-0.58235 0.5438,-0.81569c0.2334,-0.23334 0.5106,-0.41817 0.8157,-0.54384c0.3051,-0.12567 0.6321,-0.18969 0.9621,-0.18837c1.39,0 2.52,1.13 2.52,2.51zM13.4,9.42c0,1.04 0.84,1.89 1.89,1.89c1.04,0 1.88,-0.85 1.88,-1.89c0,-1.04 -0.84,-1.89 -1.88,-1.89c-1.05,0 -1.89,0.85 -1.89,1.89z"></path></g></g></svg>